<svg width="20" height="20" viewBox="0 0 20 20" fill="none" xmlns="http://www.w3.org/2000/svg">
<path d="M1.125 1.75C0.50625 1.75 0 2.25625 0 2.875V3.86875H20V2.875C20 2.25625 19.4937 1.75 18.875 1.75H1.125Z" fill="black"/>
<g opacity="0.25">
<path d="M1.125 1.75C0.50625 1.75 0 2.25625 0 2.875V3.86875H4.525L5.74375 1.75H1.125Z" fill="white"/>
</g>
<path d="M19.6875 4.1875H0.3125V17.9375H19.6875V4.1875Z" fill="white"/>
<path d="M19.375 4.5V17.625H0.625V4.5H19.375ZM20 3.875H0V18.25H20V3.875Z" fill="#E8E8E8"/>
<path d="M19.0625 4.8125V17.3125H0.9375V4.8125H19.0625ZM19.2188 4.65625H0.78125V17.4688H19.2188V4.65625Z" fill="#CCCCCC"/>
<path d="M1.58126 3.13127C1.7573 3.13127 1.90001 2.98857 1.90001 2.81252C1.90001 2.63648 1.7573 2.49377 1.58126 2.49377C1.40522 2.49377 1.26251 2.63648 1.26251 2.81252C1.26251 2.98857 1.40522 3.13127 1.58126 3.13127Z" fill="#999999"/>
<path d="M2.54376 3.13127C2.7198 3.13127 2.86251 2.98857 2.86251 2.81252C2.86251 2.63648 2.7198 2.49377 2.54376 2.49377C2.36772 2.49377 2.22501 2.63648 2.22501 2.81252C2.22501 2.98857 2.36772 3.13127 2.54376 3.13127Z" fill="#CCCCCC"/>
<path d="M3.49999 3.13127C3.67603 3.13127 3.81874 2.98857 3.81874 2.81252C3.81874 2.63648 3.67603 2.49377 3.49999 2.49377C3.32395 2.49377 3.18124 2.63648 3.18124 2.81252C3.18124 2.98857 3.32395 3.13127 3.49999 3.13127Z" fill="#E8E8E8"/>
<path d="M16.7312 3.375H6.67499C6.36874 3.375 6.11249 3.125 6.11249 2.8125C6.11249 2.50625 6.36249 2.25 6.67499 2.25H16.7312C17.0375 2.25 17.2937 2.5 17.2937 2.8125C17.2875 3.11875 17.0375 3.375 16.7312 3.375Z" fill="white"/>
<path d="M7.05624 2.53284L7.13124 2.82659C7.14999 2.88909 7.16249 2.95159 7.17499 3.01409H7.18124C7.19374 2.95784 7.21249 2.89534 7.23124 2.83284L7.32499 2.53909H7.41249L7.49999 2.83284C7.51874 2.90159 7.53749 2.96409 7.54999 3.02034H7.55624C7.56874 2.96409 7.58124 2.90159 7.59999 2.83284L7.68124 2.53909H7.78749L7.59999 3.12034H7.50624L7.41874 2.84534C7.39999 2.78284 7.38124 2.72034 7.36874 2.65159C7.35624 2.72034 7.33749 2.78284 7.31874 2.84534L7.22499 3.12034H7.13124L6.95624 2.53909H7.05624V2.53284Z" fill="black"/>
<path d="M7.95001 2.53286L8.02501 2.82661C8.04376 2.88911 8.05626 2.95161 8.06876 3.01411H8.07501C8.08751 2.95786 8.10626 2.89536 8.12501 2.83286L8.21876 2.53911H8.30626L8.39376 2.83286C8.41251 2.90161 8.43126 2.96411 8.44376 3.02036H8.45001C8.46251 2.96411 8.47501 2.90161 8.49376 2.83286L8.57501 2.53911H8.68126L8.49376 3.12036H8.40001L8.31251 2.83286C8.29376 2.77036 8.27501 2.70786 8.26251 2.63911C8.25001 2.70786 8.23126 2.77036 8.21251 2.83286L8.11876 3.10786H8.02501L7.85001 2.52661H7.95001V2.53286Z" fill="black"/>
<path d="M8.85 2.53284L8.925 2.82659C8.94375 2.88909 8.95625 2.95159 8.96875 3.01409H8.975C8.9875 2.95784 9.00625 2.89534 9.025 2.83284L9.11875 2.53909H9.20625L9.29375 2.83284C9.3125 2.90159 9.33125 2.96409 9.34375 3.02034H9.35C9.3625 2.96409 9.375 2.90159 9.39375 2.83284L9.475 2.53909H9.58125L9.39375 3.12034H9.3L9.2125 2.84534C9.19375 2.78284 9.175 2.72034 9.1625 2.65159C9.15 2.72034 9.13125 2.78284 9.1125 2.84534L9.01875 3.12034H8.925L8.75 2.53909H8.85V2.53284Z" fill="black"/>
<path d="M9.61874 3.05156C9.61874 3.00781 9.64999 2.97656 9.69374 2.97656C9.73749 2.97656 9.76249 3.00781 9.76249 3.05156C9.76249 3.09531 9.73749 3.12656 9.68749 3.12656C9.64374 3.12656 9.61874 3.09531 9.61874 3.05156Z" fill="black"/>
<path d="M18.9187 2.75H18.0187V2.90625H18.9187V2.75Z" fill="#E9EDF1"/>
<path d="M18.5375 3.2938L18.425 3.1813L18.7812 2.82505L18.425 2.4688L18.5375 2.36255L19.0062 2.82505L18.5375 3.2938Z" fill="#E9EDF1"/>
<path d="M16.7875 2.63123L16.4938 3.01873L16.1938 2.63123H16.7875Z" fill="#999999"/>
<path d="M18 6H2V13H18V6Z" fill="#00868F"/>
<path d="M4.44813 14.5803H3.61313V15.4153H4.44813V14.5803Z" fill="#999999"/>
<path d="M5.73719 14.5803H4.90219V15.4153H5.73719V14.5803Z" fill="#00868F"/>
<path d="M7.02656 14.5803H6.19156V15.4153H7.02656V14.5803Z" fill="#00868F"/>
<path d="M8.31562 14.5803H7.48062V15.4153H8.31562V14.5803Z" fill="#999999"/>
<path d="M10.9383 8.46901H10.6062V7.58649C10.6062 7.47868 10.5318 7.39087 10.4399 7.39087H8.87585C8.78429 7.39087 8.7096 7.47868 8.7096 7.58649V8.46901H8.37741V7.58649C8.37741 7.26305 8.60085 7 8.87585 7H10.4399C10.7146 7 10.9383 7.26305 10.9383 7.58649V8.46901Z" fill="black"/>
<path d="M7.74702 8.24011L7.00046 12.4838H12.3158L11.5692 8.24011H7.74702Z" fill="white"/>
<path d="M8.85491 9.73874C8.69491 9.73874 8.56491 9.58572 8.56491 9.39714C8.56491 9.20856 8.6946 9.05554 8.85491 9.05554C9.01522 9.05554 9.14491 9.20856 9.14491 9.39714C9.14491 9.58572 9.01491 9.73874 8.85491 9.73874ZM10.4605 9.73874C10.3005 9.73874 10.1705 9.58572 10.1705 9.39714C10.1705 9.20856 10.3002 9.05554 10.4605 9.05554C10.6205 9.05554 10.7505 9.20856 10.7505 9.39714C10.7505 9.58572 10.6205 9.73874 10.4605 9.73874Z" fill="#999999"/>
<path d="M16.7866 15.9553H11.9778C11.8384 15.9553 11.7244 15.8412 11.7244 15.7018V14.1503C11.7244 14.0109 11.8384 13.8969 11.9778 13.8969H16.7862C16.9256 13.8969 17.0397 14.0109 17.0397 14.1503V15.7018C17.0397 15.8412 16.9259 15.9553 16.7866 15.9553Z" fill="#999999"/>
<path d="M13.3822 14.4441C13.4316 14.4341 13.5216 14.4263 13.6094 14.4263C13.7247 14.4263 13.796 14.4403 13.8541 14.481C13.9075 14.5128 13.9428 14.5681 13.9428 14.6406C13.9428 14.7194 13.8935 14.7916 13.801 14.826V14.8285C13.891 14.8513 13.9735 14.9225 13.9735 15.0406C13.9735 15.1166 13.9406 15.1763 13.891 15.2166C13.83 15.27 13.7297 15.2966 13.5738 15.2966C13.4875 15.2966 13.4216 15.29 13.3822 15.2853V14.4441ZM13.5369 14.7816H13.6169C13.7247 14.7816 13.7856 14.7306 13.7856 14.6585C13.7856 14.5785 13.7247 14.5416 13.6256 14.5416C13.58 14.5416 13.5535 14.5441 13.5369 14.5481V14.7816ZM13.5369 15.1747C13.5572 15.1772 13.5838 15.1788 13.6194 15.1788C13.7197 15.1788 13.8085 15.1406 13.8085 15.0353C13.8085 14.9366 13.7222 14.896 13.6144 14.896H13.5369V15.1747Z" fill="white"/>
<path d="M14.6581 15.1022C14.6581 15.1757 14.661 15.2369 14.6635 15.2875H14.5266L14.5191 15.1935H14.5166C14.49 15.2382 14.4291 15.3016 14.3188 15.3016C14.206 15.3016 14.1031 15.2341 14.1031 15.0329V14.67H14.2591V15.006C14.2591 15.1088 14.2919 15.1747 14.3744 15.1747C14.4366 15.1747 14.4772 15.1304 14.4938 15.091C14.4991 15.0769 14.5025 15.0604 14.5025 15.0429V14.67H14.6585V15.1022H14.6581Z" fill="white"/>
<path d="M14.9234 14.67L15.035 15.0013C15.0478 15.0391 15.0603 15.086 15.0691 15.1219H15.0731C15.0831 15.0863 15.0944 15.0407 15.1059 15L15.2025 14.67H15.3697L15.215 15.0913C15.1303 15.3219 15.0731 15.4247 14.9997 15.4885C14.9388 15.5429 14.8753 15.5632 14.8363 15.5685L14.8006 15.4363C14.8272 15.4297 14.8603 15.4163 14.8919 15.3932C14.9213 15.3741 14.9553 15.3372 14.9769 15.2957C14.9834 15.2844 14.9869 15.2754 14.9869 15.2675C14.9869 15.2613 14.9856 15.2525 14.9781 15.2372L14.7522 14.6704H14.9234V14.67Z" fill="white"/>
</svg>
