<svg width="53" height="53" viewBox="0 0 53 53" fill="none" xmlns="http://www.w3.org/2000/svg">
<path d="M51.2323 26.5V11.4833C51.2323 10.7805 50.9531 10.1065 50.4561 9.6095C49.9592 9.11253 49.2851 8.83333 48.5823 8.83333H42.399V3.53333C42.399 2.59624 42.0267 1.69752 41.3641 1.03489C40.7014 0.372261 39.8027 0 38.8656 0L14.1323 0C13.1952 0 12.2965 0.372261 11.6338 1.03489C10.9712 1.69752 10.599 2.59624 10.599 3.53333V8.83333H5.29896C4.36186 8.83333 3.46314 9.20559 2.80051 9.86822C2.13789 10.5309 1.76563 11.4296 1.76562 12.3667V30.9167C1.76563 31.8538 2.13789 32.7525 2.80051 33.4151C3.46314 34.0777 4.36186 34.45 5.29896 34.45H10.599V49.4667C10.599 50.4038 10.9712 51.3025 11.6338 51.9651C12.2965 52.6277 13.1952 53 14.1323 53H38.8656C39.8027 53 40.7014 52.6277 41.3641 51.9651C42.0267 51.3025 42.399 50.4038 42.399 49.4667V40.6333H45.049C45.9861 40.6333 46.8848 40.2611 47.5474 39.5984C48.21 38.9358 48.5823 38.0371 48.5823 37.1V30.9167C48.5792 30.2947 48.4103 29.6849 48.0929 29.15H48.5823C49.2851 29.15 49.9592 28.8708 50.4561 28.3738C50.9531 27.8769 51.2323 27.2028 51.2323 26.5ZM33.5656 1.76667V4.41667C33.5656 4.65094 33.4726 4.87562 33.3069 5.04128C33.1412 5.20693 32.9166 5.3 32.6823 5.3H20.3156C20.0814 5.3 19.8567 5.20693 19.691 5.04128C19.5254 4.87562 19.4323 4.65094 19.4323 4.41667V1.76667H33.5656ZM12.3656 3.53333C12.3656 3.06478 12.5518 2.61543 12.8831 2.28411C13.2144 1.9528 13.6637 1.76667 14.1323 1.76667H17.6656V4.41667C17.6656 5.11949 17.9448 5.79353 18.4418 6.2905C18.9388 6.78747 19.6128 7.06667 20.3156 7.06667H32.6823C33.3851 7.06667 34.0592 6.78747 34.5561 6.2905C35.0531 5.79353 35.3323 5.11949 35.3323 4.41667V1.76667H38.8656C39.3342 1.76667 39.7835 1.9528 40.1148 2.28411C40.4462 2.61543 40.6323 3.06478 40.6323 3.53333V8.83333H12.3656V3.53333ZM5.29896 10.6H48.5823C48.8166 10.6 49.0412 10.6931 49.2069 10.8587C49.3726 11.0244 49.4656 11.2491 49.4656 11.4833V26.5C49.4656 26.7343 49.3726 26.959 49.2069 27.1246C49.0412 27.2903 48.8166 27.3833 48.5823 27.3833H5.29896C4.67687 27.387 4.06701 27.5565 3.53229 27.8745V12.3667C3.53229 11.8981 3.71842 11.4488 4.04974 11.1174C4.38105 10.7861 4.83041 10.6 5.29896 10.6ZM3.53229 30.9167C3.53229 30.4481 3.71842 29.9988 4.04974 29.6674C4.38105 29.3361 4.83041 29.15 5.29896 29.15H10.599V32.6833H5.29896C4.83041 32.6833 4.38105 32.4972 4.04974 32.1659C3.71842 31.8346 3.53229 31.3852 3.53229 30.9167ZM40.6323 49.4667C40.6323 49.9352 40.4462 50.3846 40.1148 50.7159C39.7835 51.0472 39.3342 51.2333 38.8656 51.2333H14.1323C13.6637 51.2333 13.2144 51.0472 12.8831 50.7159C12.5518 50.3846 12.3656 49.9352 12.3656 49.4667V29.15H40.6323V32.6833H18.549C17.6119 32.6833 16.7131 33.0556 16.0505 33.7182C15.3879 34.3809 15.0156 35.2796 15.0156 36.2167V43.5386C15.0153 43.8373 15.1035 44.1294 15.2692 44.3779C15.4349 44.6264 15.6706 44.8202 15.9464 44.9347C16.2223 45.0492 16.5259 45.0794 16.8189 45.0213C17.1119 44.9632 17.381 44.8195 17.5923 44.6083L18.549 43.649L19.5056 44.6083C19.7169 44.8195 19.9861 44.9632 20.279 45.0213C20.572 45.0794 20.8756 45.0492 21.1515 44.9347C21.4274 44.8202 21.663 44.6264 21.8287 44.3779C21.9944 44.1294 22.0827 43.8373 22.0823 43.5386V40.6333H40.6323V49.4667ZM46.8156 37.1C46.8156 37.5686 46.6295 38.0179 46.2982 38.3492C45.9669 38.6805 45.5175 38.8667 45.049 38.8667H22.0823C21.6137 38.8667 21.1644 39.0528 20.8331 39.3841C20.5018 39.7154 20.3156 40.1648 20.3156 40.6333V42.9176L19.6151 42.2171C19.3324 41.9344 18.9489 41.7755 18.549 41.7755C18.1491 41.7755 17.7655 41.9344 17.4828 42.2171L16.7823 42.9176V36.2167C16.7823 35.7481 16.9684 35.2988 17.2997 34.9674C17.6311 34.6361 18.0804 34.45 18.549 34.45H45.049C45.6694 34.451 46.2791 34.2873 46.8156 33.9757V37.1ZM46.2971 29.6685C46.5438 29.9156 46.7117 30.2302 46.7797 30.5726C46.8476 30.915 46.8127 31.2699 46.6791 31.5925C46.5456 31.915 46.3195 32.1908 46.0293 32.3849C45.7392 32.5791 45.3981 32.6829 45.049 32.6833H42.399V29.15H45.049C45.281 29.1496 45.5107 29.1952 45.725 29.2842C45.9392 29.3732 46.1337 29.5039 46.2971 29.6685Z" fill="#DD9100"/>
</svg>
