<svg width="20" height="20" viewBox="0 0 20 20" fill="none" xmlns="http://www.w3.org/2000/svg">
<path d="M17.9168 3.33333H15.3335C15.1401 2.39284 14.6283 1.54779 13.8845 0.940598C13.1407 0.333408 12.2103 0.0012121 11.2502 0L9.5835 0C8.62333 0.0012121 7.69293 0.333408 6.94912 0.940598C6.20531 1.54779 5.69358 2.39284 5.50016 3.33333H2.91683C2.69582 3.33333 2.48385 3.42113 2.32757 3.57741C2.17129 3.73369 2.0835 3.94565 2.0835 4.16667C2.0835 4.38768 2.17129 4.59964 2.32757 4.75592C2.48385 4.9122 2.69582 5 2.91683 5H3.75016V15.8333C3.75149 16.938 4.1909 17.997 4.97201 18.7782C5.75313 19.5593 6.81217 19.9987 7.91683 20H12.9168C14.0215 19.9987 15.0805 19.5593 15.8616 18.7782C16.6428 17.997 17.0822 16.938 17.0835 15.8333V5H17.9168C18.1378 5 18.3498 4.9122 18.5061 4.75592C18.6624 4.59964 18.7502 4.38768 18.7502 4.16667C18.7502 3.94565 18.6624 3.73369 18.5061 3.57741C18.3498 3.42113 18.1378 3.33333 17.9168 3.33333ZM9.5835 1.66667H11.2502C11.7671 1.6673 12.2711 1.82781 12.6932 2.1262C13.1152 2.42459 13.4347 2.84624 13.6077 3.33333H7.226C7.39898 2.84624 7.71841 2.42459 8.14048 2.1262C8.56256 1.82781 9.0666 1.6673 9.5835 1.66667ZM15.4168 15.8333C15.4168 16.4964 15.1534 17.1323 14.6846 17.6011C14.2158 18.0699 13.5799 18.3333 12.9168 18.3333H7.91683C7.25379 18.3333 6.6179 18.0699 6.14906 17.6011C5.68022 17.1323 5.41683 16.4964 5.41683 15.8333V5H15.4168V15.8333Z" fill="#FF4040"/>
<path d="M8.74935 14.9992C8.97036 14.9992 9.18232 14.9114 9.3386 14.7551C9.49488 14.5988 9.58268 14.3869 9.58268 14.1659V9.16585C9.58268 8.94484 9.49488 8.73288 9.3386 8.5766C9.18232 8.42032 8.97036 8.33252 8.74935 8.33252C8.52834 8.33252 8.31637 8.42032 8.16009 8.5766C8.00381 8.73288 7.91602 8.94484 7.91602 9.16585V14.1659C7.91602 14.3869 8.00381 14.5988 8.16009 14.7551C8.31637 14.9114 8.52834 14.9992 8.74935 14.9992Z" fill="#FF4040"/>
<path d="M12.0843 14.9992C12.3053 14.9992 12.5173 14.9114 12.6736 14.7551C12.8298 14.5988 12.9176 14.3869 12.9176 14.1659V9.16585C12.9176 8.94484 12.8298 8.73288 12.6736 8.5766C12.5173 8.42032 12.3053 8.33252 12.0843 8.33252C11.8633 8.33252 11.6513 8.42032 11.4951 8.5766C11.3388 8.73288 11.251 8.94484 11.251 9.16585V14.1659C11.251 14.3869 11.3388 14.5988 11.4951 14.7551C11.6513 14.9114 11.8633 14.9992 12.0843 14.9992Z" fill="#FF4040"/>
</svg>
