<svg width="24" height="24" viewBox="0 0 24 24" fill="none" xmlns="http://www.w3.org/2000/svg">
<g clip-path="url(#clip0_25415_24786)">
<path d="M19.2404 6.87251V9.42791C19.2401 9.54077 19.1951 9.64891 19.1153 9.72871C19.0355 9.80852 18.9274 9.85349 18.8145 9.85381H3.05532C2.43538 9.85413 1.83648 9.62895 1.37032 9.22026C0.904165 8.81157 0.60257 8.24728 0.521784 7.63262C0.440998 7.01797 0.586537 6.39491 0.93126 5.87964C1.27598 5.36438 1.79635 4.99209 2.39532 4.83221C2.61005 4.7716 2.8322 4.74131 3.05532 4.74221H17.1108C17.6757 4.74231 18.2174 4.96681 18.6168 5.36632C19.0162 5.76582 19.2405 6.30761 19.2404 6.87251Z" fill="#C6E5FF"/>
<path d="M19.2403 6.87161V9.42701C19.2399 9.53987 19.195 9.64801 19.1152 9.72781C19.0354 9.80762 18.9272 9.85259 18.8144 9.85291H3.05517C2.60796 9.85385 2.16848 9.73629 1.78147 9.51221C1.77737 9.38021 1.77737 9.24811 1.77737 9.11221C1.77489 7.66315 1.98297 6.22143 2.39507 4.83221C2.6098 4.7716 2.83195 4.74131 3.05507 4.74221H17.1107C17.6754 4.74231 18.217 4.96669 18.6163 5.366C19.0157 5.76531 19.2401 6.30687 19.2403 6.87161Z" fill="#DAF1FF"/>
<path d="M19.241 6.87199V9.42739C19.2407 9.54025 19.1957 9.64839 19.1159 9.72819C19.0361 9.808 18.928 9.85297 18.8151 9.85329H9.811C9.18238 8.22762 8.97866 6.4685 9.2191 4.74219H17.1114C17.6762 4.74229 18.2178 4.96672 18.6172 5.36612C19.0166 5.76552 19.2409 6.30718 19.241 6.87199Z" fill="white"/>
<path d="M20.3506 9.07199C20.3513 9.08631 20.3499 9.10065 20.3465 9.11459C20.3027 9.3915 20.1781 9.64932 19.9883 9.85569C19.9405 9.90861 19.8893 9.95842 19.835 10.0048L13.2631 15.5205L10.1883 18.1017C10.1126 18.1667 10.0155 18.2016 9.91572 18.1996C9.85418 18.1998 9.79333 18.1866 9.73743 18.1608C9.68154 18.1351 9.63194 18.0974 9.59212 18.0505L2.47032 9.57029C2.399 9.48305 2.36391 9.37175 2.37232 9.25939C2.37658 9.20355 2.39197 9.14913 2.41758 9.09933C2.44318 9.04952 2.47849 9.00534 2.52142 8.96939L4.64692 7.18519L10.8483 1.98038L12.1683 0.872885C12.4384 0.641388 12.784 0.517122 13.1396 0.523685C13.3153 0.524957 13.4886 0.564475 13.6475 0.639492C13.8064 0.714509 13.947 0.823226 14.0596 0.958085L20.0824 8.13069C20.1933 8.26019 20.2734 8.41311 20.3167 8.57799C20.3624 8.73848 20.3739 8.90676 20.3506 9.07199Z" fill="#FE9C39"/>
<path d="M20.3521 9.07199C20.3528 9.08631 20.3514 9.10065 20.348 9.11459C20.3042 9.3915 20.1796 9.64932 19.9898 9.85569C19.942 9.90861 19.8908 9.95842 19.8365 10.0048L13.2646 15.5205C11.3061 14.846 9.51951 13.75 8.03076 12.3098C6.54201 10.8696 5.38742 9.12025 4.64844 7.18519L10.8498 1.98038L12.1698 0.872885C12.4399 0.641388 12.7855 0.517122 13.1411 0.523685C13.3168 0.524957 13.4901 0.564475 13.649 0.639492C13.8079 0.714509 13.9485 0.823226 14.0611 0.958085L20.0839 8.13069C20.1948 8.26019 20.2749 8.41311 20.3182 8.57799C20.3639 8.73848 20.3754 8.90676 20.3521 9.07199Z" fill="#FED154"/>
<path d="M20.3539 9.07199C20.2986 9.07629 20.2433 9.07629 20.188 9.07629C18.069 9.08084 16.0073 8.38875 14.3203 7.10657C12.6332 5.82439 11.4145 4.02322 10.8516 1.98038L12.1716 0.872885C12.4416 0.641388 12.7872 0.517122 13.1429 0.523685C13.3186 0.524957 13.4919 0.564475 13.6507 0.639492C13.8096 0.714509 13.9502 0.823226 14.0629 0.958085L20.0857 8.13068C20.1965 8.26019 20.2766 8.41311 20.32 8.57798C20.3656 8.73848 20.3772 8.90676 20.3539 9.07199Z" fill="#FEEC88"/>
<path d="M8.54972 16.5731C8.48753 16.5732 8.42608 16.5597 8.36971 16.5334C8.31334 16.5071 8.26343 16.4688 8.22352 16.4211L3.84202 11.2035C3.76931 11.1168 3.73398 11.0049 3.7438 10.8922C3.75363 10.7795 3.80781 10.6753 3.89442 10.6025L11.3144 4.3755C11.401 4.30302 11.5128 4.26783 11.6253 4.27766C11.7377 4.28748 11.8417 4.34151 11.9144 4.42791C12.2436 4.82021 13.253 4.6545 13.7373 4.2479C13.8239 4.17542 13.9357 4.14023 14.0482 4.15006C14.1606 4.15988 14.2646 4.21391 14.3373 4.3003L16.841 7.28251C16.9137 7.36896 16.9491 7.48073 16.9393 7.59325C16.9296 7.70577 16.8756 7.80981 16.7891 7.88251C16.3048 8.28881 15.9666 9.2531 16.2963 9.6462C16.3323 9.68904 16.3595 9.73856 16.3763 9.79192C16.3932 9.84529 16.3993 9.90145 16.3944 9.95718C16.3895 10.0129 16.3736 10.0671 16.3477 10.1167C16.3218 10.1663 16.2864 10.2103 16.2434 10.2462L8.82342 16.4733C8.7469 16.5378 8.65003 16.5733 8.54992 16.5733M4.76842 10.9816L8.60173 15.5475L15.4233 9.8235C15.1328 9.0935 15.4621 8.1389 15.9433 7.5388L13.9304 5.14041C13.2558 5.51101 12.2583 5.6694 11.5891 5.25801L4.76842 10.9816Z" fill="white"/>
<path d="M21.7965 11.1361V21.3583C21.7964 21.9231 21.5719 22.4648 21.1725 22.8643C20.7731 23.2637 20.2314 23.4881 19.6665 23.4883H2.63022C2.06535 23.4881 1.52365 23.2637 1.12423 22.8643C0.724807 22.4648 0.500354 21.9231 0.500222 21.3583V7.72868C0.498605 7.68785 0.505837 7.64715 0.521422 7.60938C0.568147 8.00317 0.706532 8.38053 0.925472 8.71117C1.14441 9.04181 1.43781 9.31653 1.78212 9.51328C2.16797 9.74065 2.60797 9.85983 3.05582 9.85827H19.9902C20.1799 9.65187 20.3044 9.39406 20.3481 9.11718C20.7703 9.26001 21.1371 9.5316 21.3969 9.89375C21.6567 10.2559 21.7965 10.6904 21.7965 11.1361Z" fill="#0461A5"/>
<path d="M21.7957 11.1361V21.3583C21.7955 21.9232 21.5711 22.4649 21.1716 22.8643C20.7722 23.2637 20.2305 23.4882 19.6657 23.4883H12.0123C6.16845 21.4393 1.94745 15.9746 1.78125 9.51329C2.1671 9.74066 2.60709 9.85984 3.05495 9.85829H19.9894C20.179 9.65188 20.3035 9.39407 20.3473 9.11719C20.7694 9.26003 21.1362 9.53162 21.3961 9.89376C21.6559 10.2559 21.7956 10.6904 21.7957 11.1361Z" fill="#1B7ABF"/>
<path d="M21.7981 11.1361V16.2941C21.0706 16.4535 20.328 16.5335 19.5832 16.5326C17.471 16.5373 15.4069 15.9021 13.6628 14.7107C11.9187 13.5193 10.5763 11.8275 9.8125 9.85829H19.9918C20.1815 9.65188 20.306 9.39407 20.3497 9.11719C20.7719 9.26003 21.1387 9.53162 21.3985 9.89376C21.6583 10.2559 21.7981 10.6904 21.7981 11.1361Z" fill="#2A8ACF"/>
<path d="M23.4988 14.965V18.3725C23.4978 18.7111 23.3628 19.0355 23.1234 19.2749C22.884 19.5143 22.5596 19.6492 22.221 19.6502H18.8136C18.0231 19.6493 17.2653 19.3349 16.7063 18.776C16.1474 18.217 15.833 17.4592 15.8321 16.6687C15.8311 16.5073 15.8454 16.3462 15.8748 16.1875C15.9889 15.4901 16.347 14.8559 16.8852 14.398C17.4235 13.9401 18.1069 13.6883 18.8136 13.6875H22.221C22.5118 13.6888 22.7938 13.7878 23.0217 13.9686C23.1703 14.0887 23.2903 14.2405 23.3729 14.4129C23.4554 14.5852 23.4984 14.7739 23.4988 14.965Z" fill="#FE9C39"/>
<path d="M23.0217 13.9684C22.4541 16.0764 21.401 18.0222 19.9466 19.6502H18.8136C18.0231 19.6493 17.2653 19.3349 16.7063 18.776C16.1474 18.217 15.833 17.4592 15.8321 16.6687C15.8311 16.5073 15.8454 16.3462 15.8748 16.1875C15.9889 15.4901 16.347 14.8559 16.8852 14.398C17.4235 13.9401 18.1069 13.6883 18.8136 13.6875H22.221C22.5118 13.6887 22.7938 13.7876 23.0217 13.9684Z" fill="#FED154"/>
<path d="M19.0397 13.6875C18.1725 14.7343 17.0941 15.5862 15.875 16.1875C15.9891 15.4901 16.3472 14.8559 16.8855 14.398C17.4237 13.9401 18.1071 13.6883 18.8138 13.6875H19.0397Z" fill="#FEEC88"/>
<path d="M20.5163 16.6721C20.5163 16.8406 20.4664 17.0053 20.3728 17.1454C20.2792 17.2856 20.1461 17.3948 19.9905 17.4592C19.8348 17.5237 19.6635 17.5406 19.4982 17.5077C19.333 17.4749 19.1812 17.3937 19.062 17.2746C18.9429 17.1555 18.8617 17.0036 18.8289 16.8384C18.796 16.6731 18.8129 16.5018 18.8774 16.3462C18.9419 16.1905 19.0511 16.0574 19.1912 15.9638C19.3313 15.8702 19.496 15.8203 19.6645 15.8203C19.8904 15.8204 20.107 15.9102 20.2667 16.0699C20.4265 16.2296 20.5162 16.4462 20.5163 16.6721Z" fill="white"/>
<path d="M3.90637 19.2283C3.85044 19.2283 3.79505 19.2173 3.74337 19.1959C3.69169 19.1745 3.64473 19.1431 3.60518 19.1036C3.56563 19.064 3.53426 19.0171 3.51286 18.9654C3.49146 18.9137 3.48046 18.8583 3.48047 18.8024V14.5431C3.48047 14.4301 3.52534 14.3218 3.60521 14.2419C3.68508 14.1621 3.79341 14.1172 3.90637 14.1172C4.01932 14.1172 4.12765 14.1621 4.20753 14.2419C4.2874 14.3218 4.33227 14.4301 4.33227 14.5431V18.8024C4.33228 18.8583 4.32127 18.9137 4.29988 18.9654C4.27848 19.0171 4.24711 19.064 4.20755 19.1036C4.168 19.1431 4.12105 19.1745 4.06937 19.1959C4.01769 19.2173 3.9623 19.2283 3.90637 19.2283Z" fill="white"/>
</g>
<defs>
<clipPath id="clip0_25415_24786">
<rect width="24" height="24" fill="white"/>
</clipPath>
</defs>
</svg>
